<svg width="39" height="41" viewBox="0 0 39 41" fill="none" xmlns="http://www.w3.org/2000/svg">
<path fill-rule="evenodd" clip-rule="evenodd" d="M28.2221 15.586C28.3432 15.7038 28.4392 15.8437 28.5047 15.9978C28.5703 16.1518 28.604 16.317 28.604 16.4838C28.604 16.6505 28.5703 16.8157 28.5047 16.9697C28.4392 17.1238 28.3432 17.2637 28.2221 17.3815L20.4221 24.9895C20.3013 25.1075 20.1579 25.2012 19.9999 25.2651C19.842 25.3291 19.6727 25.362 19.5017 25.362C19.3307 25.362 19.1614 25.3291 19.0034 25.2651C18.8455 25.2012 18.7021 25.1075 18.5813 24.9895L14.6813 21.1855C14.5604 21.0676 14.4645 20.9276 14.3991 20.7736C14.3337 20.6196 14.3 20.4545 14.3 20.2877C14.3 20.121 14.3337 19.9559 14.3991 19.8019C14.4645 19.6479 14.5604 19.5079 14.6813 19.39C14.8022 19.2721 14.9457 19.1786 15.1036 19.1148C15.2615 19.051 15.4308 19.0181 15.6017 19.0181C15.7726 19.0181 15.9419 19.051 16.0998 19.1148C16.2577 19.1786 16.4012 19.2721 16.5221 19.39L19.5017 22.2988L26.3813 15.586C26.5021 15.4679 26.6455 15.3743 26.8034 15.3103C26.9614 15.2464 27.1307 15.2135 27.3017 15.2135C27.4727 15.2135 27.642 15.2464 27.7999 15.3103C27.9579 15.3743 28.1013 15.4679 28.2221 15.586Z" fill="black"/>
<path d="M7.8001 0H33.8001C35.1792 0 36.5019 0.534367 37.4771 1.48555C38.4523 2.43672 39.0001 3.7268 39.0001 5.07197V35.5038C39.0001 36.849 38.4523 38.139 37.4771 39.0902C36.5019 40.0414 35.1792 40.5758 33.8001 40.5758H7.8001C6.42097 40.5758 5.09833 40.0414 4.12314 39.0902C3.14795 38.139 2.6001 36.849 2.6001 35.5038V32.9678H5.2001V35.5038C5.2001 36.1764 5.47403 36.8214 5.96162 37.297C6.44922 37.7726 7.11054 38.0398 7.8001 38.0398H33.8001C34.4897 38.0398 35.151 37.7726 35.6386 37.297C36.1262 36.8214 36.4001 36.1764 36.4001 35.5038V5.07197C36.4001 4.39939 36.1262 3.75435 35.6386 3.27876C35.151 2.80317 34.4897 2.53599 33.8001 2.53599H7.8001C7.11054 2.53599 6.44922 2.80317 5.96162 3.27876C5.47403 3.75435 5.2001 4.39939 5.2001 5.07197V7.60796H2.6001V5.07197C2.6001 3.7268 3.14795 2.43672 4.12314 1.48555C5.09833 0.534367 6.42097 0 7.8001 0V0Z" fill="black"/>
<path d="M2.6 12.6799V11.4119C2.6 11.0756 2.73696 10.7531 2.98076 10.5153C3.22456 10.2775 3.55522 10.1439 3.9 10.1439C4.24478 10.1439 4.57544 10.2775 4.81924 10.5153C5.06304 10.7531 5.2 11.0756 5.2 11.4119V12.6799H6.5C6.84478 12.6799 7.17544 12.8135 7.41924 13.0513C7.66304 13.2891 7.8 13.6116 7.8 13.9479C7.8 14.2842 7.66304 14.6067 7.41924 14.8445C7.17544 15.0823 6.84478 15.2159 6.5 15.2159H1.3C0.955219 15.2159 0.624559 15.0823 0.380761 14.8445C0.136964 14.6067 0 14.2842 0 13.9479C0 13.6116 0.136964 13.2891 0.380761 13.0513C0.624559 12.8135 0.955219 12.6799 1.3 12.6799H2.6ZM2.6 20.2879V19.0199C2.6 18.6836 2.73696 18.3611 2.98076 18.1233C3.22456 17.8855 3.55522 17.7519 3.9 17.7519C4.24478 17.7519 4.57544 17.8855 4.81924 18.1233C5.06304 18.3611 5.2 18.6836 5.2 19.0199V20.2879H6.5C6.84478 20.2879 7.17544 20.4215 7.41924 20.6592C7.66304 20.897 7.8 21.2196 7.8 21.5559C7.8 21.8921 7.66304 22.2147 7.41924 22.4525C7.17544 22.6903 6.84478 22.8238 6.5 22.8238H1.3C0.955219 22.8238 0.624559 22.6903 0.380761 22.4525C0.136964 22.2147 0 21.8921 0 21.5559C0 21.2196 0.136964 20.897 0.380761 20.6592C0.624559 20.4215 0.955219 20.2879 1.3 20.2879H2.6ZM2.6 27.8958V26.6278C2.6 26.2915 2.73696 25.969 2.98076 25.7312C3.22456 25.4934 3.55522 25.3598 3.9 25.3598C4.24478 25.3598 4.57544 25.4934 4.81924 25.7312C5.06304 25.969 5.2 26.2915 5.2 26.6278V27.8958H6.5C6.84478 27.8958 7.17544 28.0294 7.41924 28.2672C7.66304 28.505 7.8 28.8275 7.8 29.1638C7.8 29.5001 7.66304 29.8226 7.41924 30.0604C7.17544 30.2982 6.84478 30.4318 6.5 30.4318H1.3C0.955219 30.4318 0.624559 30.2982 0.380761 30.0604C0.136964 29.8226 0 29.5001 0 29.1638C0 28.8275 0.136964 28.505 0.380761 28.2672C0.624559 28.0294 0.955219 27.8958 1.3 27.8958H2.6Z" fill="black"/>
</svg>
